<svg width="2208" height="2163" xmlns="http://www.w3.org/2000/svg" xmlns:xlink="http://www.w3.org/1999/xlink" xml:space="preserve" overflow="hidden"><defs><clipPath id="clip0"><rect x="1094" y="171" width="2208" height="2163"/></clipPath></defs><g clip-path="url(#clip0)" transform="translate(-1094 -171)"><path d="M3228.02 1086.27C3329.65 1192.49 3325.93 1360.98 3219.72 1462.6L2386.92 2259.44C2280.71 2361.07 2112.22 2357.35 2010.59 2251.14L1213.76 1418.34C1112.13 1312.13 1115.85 1143.64 1222.06 1042.01L2054.85 245.177C2161.07 143.549 2329.56 147.267 2431.19 253.481Z" fill="#9FD6A7" fill-rule="evenodd"/><path d="M2816.17 1112.46C2898.76 1198.77 2895.74 1335.69 2809.43 1418.28L2132.66 2065.83C2046.34 2148.42 1909.42 2145.4 1826.83 2059.08L1179.28 1382.31C1096.7 1296 1099.72 1159.07 1186.03 1076.49L1862.8 428.939C1949.12 346.351 2086.04 349.372 2168.63 435.687Z" fill="#76C481" fill-rule="evenodd"/><path d="M2356.31 1141.69C2417.64 1205.79 2415.4 1307.46 2351.3 1368.79L1848.75 1849.65C1784.65 1910.97 1682.98 1908.73 1621.65 1844.64L1140.79 1342.08C1079.46 1277.99 1081.71 1176.31 1145.8 1114.98L1648.36 634.126C1712.45 572.798 1814.13 575.041 1875.46 639.137Z" fill="#48A655" fill-rule="evenodd"/><path d="M2928.87 1085.43C3025.08 1086.85 3101.93 1166.01 3100.5 1262.22L3100.5 1262.22C3099.08 1358.44 3019.93 1435.28 2923.71 1433.86L1266.61 1409.34C1170.39 1407.91 1093.55 1328.76 1094.97 1232.54L1094.97 1232.55C1096.4 1136.33 1175.55 1059.49 1271.76 1060.91Z" fill="#9FD6A7" fill-rule="evenodd"/></g></svg>