<svg width="1038" height="367" xmlns="http://www.w3.org/2000/svg" xmlns:xlink="http://www.w3.org/1999/xlink" xml:space="preserve" overflow="hidden"><defs><clipPath id="clip0"><rect x="191" y="1789" width="1038" height="367"/></clipPath></defs><g clip-path="url(#clip0)" transform="translate(-191 -1789)"><path d="M502.84 1921.89C517.581 1937.3 517.041 1961.73 501.635 1976.48L380.84 2092.05C365.434 2106.8 340.995 2106.26 326.254 2090.85L210.675 1970.06C195.934 1954.65 196.474 1930.21 211.88 1915.47L332.674 1799.89C348.081 1785.15 372.52 1785.69 387.26 1801.09Z" fill="#9FD6A7" fill-rule="evenodd"/><path d="M443.102 1925.69C455.082 1938.21 454.643 1958.07 442.124 1970.05L343.96 2063.97C331.44 2075.95 311.58 2075.51 299.6 2062.99L205.675 1964.83C193.696 1952.31 194.134 1932.45 206.654 1920.47L304.818 1826.54C317.337 1814.56 337.198 1815 349.177 1827.52Z" fill="#76C481" fill-rule="evenodd"/><path d="M376.4 1929.93C385.296 1939.22 384.97 1953.97 375.674 1962.87L302.779 2032.61C293.482 2041.51 278.734 2041.18 269.839 2031.89L200.092 1958.99C191.196 1949.7 191.522 1934.95 200.818 1926.05L273.713 1856.31C283.01 1847.41 297.758 1847.74 306.653 1857.03Z" fill="#48A655" fill-rule="evenodd"/><path d="M457.89 1921.7C471.846 1921.9 482.992 1933.38 482.785 1947.34L482.785 1947.34C482.579 1961.29 471.098 1972.44 457.142 1972.23L216.783 1968.68C202.827 1968.47 191.681 1956.99 191.887 1943.03L191.887 1943.03C192.094 1929.08 203.575 1917.93 217.531 1918.14Z" fill="#9FD6A7" fill-rule="evenodd"/><text fill="#FFFFFF" font-family="jf-openhuninn-1.1,jf-openhuninn-1.1_MSFontService,sans-serif" font-weight="400" font-size="92" transform="matrix(1 0 0 1 516.159 2076)">bridge</text></g></svg>